<svg xmlns="http://www.w3.org/2000/svg" width="32" height="32">
    <g transform="translate(-214 -361)">
      <circle cx="16" cy="16" r="16" transform="translate(214 361)" fill="#fff"/>
      <path d="M237.336 375.577h-5.071v-5.071a.461.461 0 00-.461-.461h-2.766a.461.461 0 00-.461.461v5.071h-5.071a.461.461 0 00-.461.461v2.766a.461.461 0 00.461.461h5.068v5.071a.461.461 0 00.461.461h2.769a.461.461 0 00.461-.461v-5.071h5.071a.461.461 0 00.461-.461v-2.766a.461.461 0 00-.461-.461z" fill="#2ea9e8"/>
    </g>
  </svg>