<svg xmlns="http://www.w3.org/2000/svg" width="38" height="38">
    <g transform="translate(-78 -49)">
      <circle cx="19" cy="19" r="19" transform="translate(78 49)" fill="#fff"/>
      <path class="b" fill="#b9d329" d="M88.404 72.933v3.358a.375.375 0 00.374.374h2.6a.375.375 0 00.374-.374v-5.907l-1.885 1.885a2.287 2.287 0 01-1.463.664zM93.043 70.341v5.949a.375.375 0 00.374.374h2.6a.375.375 0 00.374-.374v-3.5a2.263 2.263 0 01-1.562-.664zM97.681 72.418v3.872a.375.375 0 00.374.374h2.6a.375.375 0 00.374-.374v-7.145l-2.975 2.975a2.228 2.228 0 01-.373.298zM105.414 64.754l-3.094 3.094v8.443a.375.375 0 00.375.374h2.6a.375.375 0 00.374-.374v-11.3c-.085-.072-.149-.136-.2-.179z"/>
      <path class="b" fill="#b9d329" d="M107.537 59.273a.723.723 0 00-.549-.2h-.068c-1.209.055-2.413.115-3.621.17a.782.782 0 00-.557.191.634.634 0 00-.132.2.626.626 0 00.191.757l.3.306c.209.213.421.426.634.634l-7.3 7.307-3.282-3.284a1.043 1.043 0 00-1.477 0l-4.37 4.366a1.043 1.043 0 000 1.477l.2.2a1.043 1.043 0 001.477 0l3.434-3.434 3.281 3.281a1.048 1.048 0 001.481 0l8.234-8.242.932.928a.706.706 0 00.5.264.616.616 0 00.3-.081.811.811 0 00.179-.132.865.865 0 00.226-.6c.034-.783.072-1.566.111-2.353l.055-1.179a.732.732 0 00-.179-.576z"/>
    </g>
  </svg>