
<svg xmlns="http://www.w3.org/2000/svg" width="22.476" height="28.132" fill="#fff">
  <path class="a" d="M13.595 24.406a.911.911 0 00-.893.717 1.762 1.762 0 01-.352.766 1.329 1.329 0 01-1.132.415 1.351 1.351 0 01-1.132-.415 1.762 1.762 0 01-.352-.766.911.911 0 00-.893-.717.917.917 0 00-.893 1.118 3.142 3.142 0 003.27 2.609 3.136 3.136 0 003.27-2.609.92.92 0 00-.893-1.118zM22.194 20.834c-1.083-1.427-3.213-2.264-3.213-8.655 0-6.56-2.9-9.2-5.6-9.83-.253-.063-.436-.148-.436-.415v-.2a1.725 1.725 0 00-1.687-1.73h-.042a1.725 1.725 0 00-1.687 1.73v.2c0 .26-.183.352-.436.415-2.707.64-5.6 3.27-5.6 9.83 0 6.391-2.13 7.221-3.213 8.655a1.4 1.4 0 001.122 2.236h19.695a1.4 1.4 0 001.097-2.236zm-2.742.408H3.055a.308.308 0 01-.232-.513A8.518 8.518 0 004.3 18.381a15.934 15.934 0 001.005-6.2 10.783 10.783 0 011.47-6.1 4.512 4.512 0 012.72-1.946 2.464 2.464 0 001.308-.738.556.556 0 01.837-.014 2.547 2.547 0 001.322.752 4.512 4.512 0 012.721 1.941 10.783 10.783 0 011.47 6.1 15.934 15.934 0 001.005 6.2 8.615 8.615 0 001.512 2.384.291.291 0 01-.218.482z"/>
</svg>