<svg xmlns="http://www.w3.org/2000/svg" width="29.869" height="38">
    <path d="M21.78 7.996A96.051 96.051 0 0115.433.259a.608.608 0 00-.991-.007A96.054 96.054 0 018.09 7.996c-4.6 5.207-8.223 9.3-8.085 15.71C.19 32.319 6.612 38.006 14.936 38s14.745-5.673 14.931-14.294c.136-6.409-3.483-10.502-8.087-15.71zm5.127 17.71c-.031.22-.073.438-.115.655-.022.109-.043.217-.067.325s-.055.215-.085.321c-.06.213-.125.425-.192.635s-.158.415-.244.619a7.53 7.53 0 01-1.442 2.251l-.28-.085c-.052-.228-.086-.447-.115-.662-.016-.108-.026-.213-.039-.319s-.024-.21-.039-.315c-.027-.209-.049-.415-.066-.617-.009-.1-.014-.2-.028-.3s-.022-.2-.031-.3-.017-.2-.025-.3-.01-.2-.022-.294c-.02-.2-.038-.39-.05-.582-.008-.1-.009-.192-.019-.288s-.018-.191-.027-.287L24 25.878c-.007-.095-.008-.189-.018-.283q-.028-.283-.039-.564c-.006-.094 0-.187-.01-.281s-.01-.187-.012-.281 0-.187 0-.281v-.141-.141-.282l.008-.284c.007-.1 0-.19 0-.285v-.573c0-.1-.005-.191-.009-.287s-.007-.192-.012-.288-.006-.193-.019-.288c-.019-.191-.043-.382-.067-.573l-.009-.072-.012-.071-.025-.142-.049-.285c-.029-.191-.072-.38-.112-.569l-.059-.285c-.019-.1-.045-.189-.067-.283l-.069-.284-.035-.142-.039-.141c-.052-.188-.1-.378-.155-.566l-.173-.564-.188-.561c-.066-.186-.136-.371-.2-.557a22.186 22.186 0 00-.969-2.191l-.137-.269-.143-.267c-.046-.09-.1-.177-.146-.265s-.1-.177-.15-.264c-.2-.351-.417-.7-.642-1.029l.211-.2c.166.136.321.273.474.417s.3.289.45.438c.292.3.578.609.847.931.139.159.268.324.4.488s.257.334.386.5.247.343.368.517.238.351.354.529.226.36.337.542l.322.553.3.567c.1.191.189.385.284.578l.069.146.064.148.128.3c.042.1.087.2.126.3l.117.3c.077.2.156.4.222.61l.1.308.052.155.026.077.023.078c.062.208.124.417.19.626.034.1.062.21.092.315l.091.316.093.317.08.321.079.322c.026.108.053.216.071.324a7.977 7.977 0 01.109 2.645z" fill="#fff"/>
  </svg>