<svg xmlns="http://www.w3.org/2000/svg" width="37.529" height="32">
    <path d="M18.765 32a1.108 1.108 0 01-.6-.176C17.454 31.374.744 20.659.744 10.666c0-5.882 4.309-10.667 9.609-10.667a9.517 9.517 0 018.408 5.507 9.517 9.517 0 018.408-5.507c5.3 0 9.609 4.785 9.609 10.667 0 9.992-16.71 20.707-17.421 21.158a1.108 1.108 0 01-.6.176z" fill="#fff"/>
    <path d="M16.565 22.833a1.15 1.15 0 01-.12-.006 1.1 1.1 0 01-.947-.827l-1.477-5.912-.87 1.739a1.1 1.1 0 01-.984.608H1.098a1.1 1.1 0 01-1.1-1.1 1.1 1.1 0 011.1-1.1h10.389l1.894-3.79a1.091 1.091 0 011.1-.6 1.1 1.1 0 01.947.827l1.477 5.912.87-1.739a1.1 1.1 0 01.983-.608h1.52l1.894-3.79a1.145 1.145 0 011.967 0l1.894 3.79h10.389a1.1 1.1 0 011.1 1.1 1.1 1.1 0 01-1.1 1.1H25.354a1.1 1.1 0 01-.983-.608l-1.216-2.431-1.215 2.431a1.1 1.1 0 01-.984.608h-1.52l-1.894 3.79a1.1 1.1 0 01-.977.606z" fill="#2ea9e8"/>
  </svg>