<svg xmlns="http://www.w3.org/2000/svg" width="38" height="38">
    <g transform="translate(-129 -49)">
      <circle cx="19" cy="19" r="19" transform="translate(129 49)" fill="#fff"/>
      <path d="M151.949 72.202a2.548 2.548 0 00-1.823.7l-6.685-3.866a3.131 3.131 0 00.094-.652 3.129 3.129 0 00-.094-.652l6.591-3.817a2.8 2.8 0 10-.888-2.049 3.112 3.112 0 00.094.652l-6.592 3.817a2.814 2.814 0 00-1.917-.745 2.768 2.768 0 00-2.757 2.794 2.814 2.814 0 004.721 2.049l6.638 3.864a2.335 2.335 0 00-.094.605 2.711 2.711 0 102.711-2.7z" fill="#b9d329"/>
    </g>
  </svg>