<svg xmlns="http://www.w3.org/2000/svg" width="19.423" height="52">
    <path class="a" fill="#fff" d="M8.706.716L5.289 3.601v30.9l-3.672 3.265-1.035 5.542 3.514 6.074 4.609 2.05 5.466-1.113 3.189-3.518.911-3.265v-3.645l-3.341-4.328-1.063-1.594-.574-30.293-1.654-2.439z"/>
    <path class="b" fill="#2ea9e8" d="M12.689 37.044l-1.434-.832V5.227a1.577 1.577 0 00-1.44-1.441 1.574 1.574 0 00-1.153.366 1.57 1.57 0 00-.556 1.074v31.018l-1.432.831a6.029 6.029 0 00-3.014 5.258 6.026 6.026 0 006.018 5.975h.044a5.979 5.979 0 004.243-1.793 5.978 5.978 0 001.732-4.266 6.065 6.065 0 00-3.008-5.205z"/>
    <path d="M13.707 35.305l-.413-.24v-2.462h-2.479V6.125h2.479v-.862A3.62 3.62 0 009.851 1.82a3.62 3.62 0 00-3.788 3.443V35.04l-.413.24a8.057 8.057 0 00-4.029 6.994 8.058 8.058 0 008.071 8.044 8.058 8.058 0 008.044-8.071 8.082 8.082 0 00-4.029-6.942z" fill="none"/>
    <path class="a" fill="#fff" d="M17.869 37.02a9.709 9.709 0 00-2.889-2.888V5.264A5.273 5.273 0 009.707 0a5.273 5.273 0 00-5.264 5.273v28.86a9.71 9.71 0 00-2.888 13.425 9.711 9.711 0 0013.425 2.889 9.711 9.711 0 002.889-13.427zm-8.18 13.3a8.058 8.058 0 01-8.071-8.044 8.057 8.057 0 014.033-6.994l.413-.24V5.264a3.62 3.62 0 013.788-3.443 3.62 3.62 0 013.443 3.443v29.8l.413.24a8.082 8.082 0 014.025 6.942 8.058 8.058 0 01-8.045 8.072z"/>
    <path class="b" fill="#2ea9e8" d="M13.327 26.073a.826.826 0 00.826.826h.826v-1.653h-.826a.826.826 0 00-.826.827zM13.327 30.048a.826.826 0 00.826.826h.826v-1.653h-.826a.826.826 0 00-.826.827zM13.327 22.098a.826.826 0 00.826.826h.826v-1.653h-.826a.826.826 0 00-.826.827zM13.327 10.172a.826.826 0 00.826.826h.826V9.347h-.826a.826.826 0 00-.826.825zM13.327 18.123a.826.826 0 00.826.826h.826v-1.653h-.826a.826.826 0 00-.826.827zM13.327 14.152a.826.826 0 00.826.826h.826v-1.656h-.826a.826.826 0 00-.826.83z"/>
  </svg>